<?xml version="1.0" ?><!DOCTYPE svg  PUBLIC '-//W3C//DTD SVG 1.1//EN'  'http://www.w3.org/Graphics/SVG/1.1/DTD/svg11.dtd'><svg enable-background="new 0 0 24 24" height="24px" id="Layer_1" version="1.1" viewBox="0 0 24 24" width="24px" xml:space="preserve" xmlns="http://www.w3.org/2000/svg" xmlns:xlink="http://www.w3.org/1999/xlink"><g><g><path d="M12,23.6c-0.1,0-0.3,0-0.4-0.1l-0.8-0.8c0,0,0,0,0,0L6.1,18l-1.4,1.4c-0.1,0.1-0.4,0.2-0.5,0.1C4,19.4,3.9,19.2,3.9,19    v-5.2c0-0.3,0.2-0.5,0.5-0.5h5.2c0.2,0,0.4,0.1,0.5,0.3s0,0.4-0.1,0.5l-1.3,1.3l1.7,1.2V8.6C8.8,7.9,7.7,6.4,7.7,4.7    c0-2.4,1.9-4.3,4.3-4.3c2.4,0,4.3,1.9,4.3,4.3c0,1.7-1,3.2-2.6,3.9v8.1l1.7-1.2l-1.3-1.3c-0.1-0.1-0.2-0.4-0.1-0.5    s0.3-0.3,0.5-0.3h5.2c0.3,0,0.5,0.2,0.5,0.5V19c0,0.2-0.1,0.4-0.3,0.5c-0.2,0.1-0.4,0-0.5-0.1L17.8,18l-4.7,4.7c0,0,0,0,0,0    l-0.8,0.8C12.3,23.6,12.1,23.6,12,23.6z M11.5,21.9l0.5,0.5l0.5-0.5c0,0,0,0,0,0l5-5c0.2-0.2,0.5-0.2,0.7,0l0.9,0.9v-3.5h-3.5    l0.9,0.9c0.1,0.1,0.2,0.3,0.1,0.4c0,0.1-0.1,0.3-0.2,0.4l-3,2c-0.2,0.1-0.4,0.1-0.5,0c-0.2-0.1-0.3-0.3-0.3-0.4V8.2    c0-0.2,0.1-0.4,0.3-0.5c1.3-0.4,2.2-1.7,2.2-3.1c0-1.8-1.5-3.3-3.3-3.3c-1.8,0-3.3,1.5-3.3,3.3c0,1.4,0.9,2.6,2.3,3.1    c0.2,0.1,0.3,0.3,0.3,0.5v9.4c0,0.2-0.1,0.4-0.3,0.4c-0.2,0.1-0.4,0.1-0.5,0l-3-2c-0.1-0.1-0.2-0.2-0.2-0.4c0-0.1,0-0.3,0.1-0.4    l0.9-0.9H4.9v3.5l0.9-0.9c0.1-0.1,0.2-0.1,0.4-0.1l0,0c0.1,0,0.3,0.1,0.4,0.1L11.5,21.9C11.5,21.9,11.5,21.9,11.5,21.9z M12,6.6    c-1.1,0-1.9-0.9-1.9-1.9c0-1.1,0.9-1.9,1.9-1.9c1.1,0,1.9,0.9,1.9,1.9C13.9,5.7,13.1,6.6,12,6.6z M12,3.7c-0.5,0-0.9,0.4-0.9,0.9    c0,0.5,0.4,0.9,0.9,0.9c0.5,0,0.9-0.4,0.9-0.9C12.9,4.2,12.5,3.7,12,3.7z"/></g></g></svg>
